<?xml version="1.0" encoding="UTF-8"?>
<!DOCTYPE svg PUBLIC "-//W3C//DTD SVG 1.1//EN" "http://www.w3.org/Graphics/SVG/1.1/DTD/svg11.dtd">
<svg version="1.1" xmlns="http://www.w3.org/2000/svg" xmlns:xlink="http://www.w3.org/1999/xlink" x="0" y="0" width="43" height="43" viewBox="0, 0, 43, 43">
  <g id="Layer_1">
    <path d="M42.9,8.1 L42.9,34.9 C42.9,37.1 42.1,39 40.5,40.6 C38.9,42.2 37,43 34.8,43 L8.1,43 C5.9,43 4,42.2 2.4,40.6 C0.8,39 0,37.1 0,34.9 L0,8.1 C0,5.9 0.8,4 2.4,2.4 C4,0.8 5.9,0 8.1,0 L34.8,0 C37,0 38.9,0.8 40.5,2.4 C42.1,4 42.9,5.9 42.9,8.1 z M13.5,10.6 C13.5,9.6 13.1,8.8 12.5,8.2 C11.8,7.5 11,7.2 9.9,7.2 C8.8,7.2 7.9,7.5 7.3,8.1 C6.6,8.7 6.3,9.5 6.3,10.5 C6.3,11.4 6.6,12.2 7.3,12.9 C8,13.5 8.8,13.9 9.9,13.9 L9.9,13.9 C11,13.9 11.9,13.6 12.6,12.9 C13.2,12.3 13.5,11.5 13.5,10.6 z M6.6,35.9 L13,35.9 L13,16.5 L6.6,16.5 L6.6,35.9 z M29.8,35.9 L36.2,35.9 L36.2,24.8 C36.2,21.9 35.5,19.8 34.2,18.3 C32.8,16.8 31,16.1 28.8,16.1 C26.3,16.1 24.3,17.2 23,19.4 L23.1,19.4 L23.1,16.6 L16.7,16.6 C16.8,17.8 16.8,24.3 16.7,36 L23.1,36 L23.1,25.1 C23.1,24.4 23.2,23.9 23.3,23.5 C23.6,22.8 24,22.3 24.6,21.8 C25.2,21.3 25.8,21.1 26.7,21.1 C28.9,21.1 29.9,22.6 29.9,25.5 L29.9,35.9 z" fill="#000000"/>
  </g>
</svg>
