<?xml version="1.0" encoding="UTF-8"?>
<!DOCTYPE svg PUBLIC "-//W3C//DTD SVG 1.1//EN" "http://www.w3.org/Graphics/SVG/1.1/DTD/svg11.dtd">
<svg version="1.1" xmlns="http://www.w3.org/2000/svg" xmlns:xlink="http://www.w3.org/1999/xlink" x="0" y="0" width="650" height="230" viewBox="0, 0, 650, 230">
  <g id="Layer_1">
    <path d="M259.23,75 C259.789,75.07 260.335,75.222 260.85,75.45 C261.354,75.689 261.819,76.003 262.23,76.38 C262.761,76.887 263.259,77.428 263.72,78 L305.23,130.47 C305.06,128.8 304.95,127.16 304.87,125.59 C304.79,124.02 304.75,122.52 304.75,121.12 L304.75,74.83 L322.62,74.83 L322.62,162.21 L312.06,162.21 C310.707,162.249 309.362,162.003 308.11,161.49 C306.87,160.878 305.799,159.971 304.99,158.85 L263.78,106.85 C263.91,108.36 264,109.85 264.08,111.31 C264.16,112.77 264.21,114.14 264.21,115.42 L264.21,162.26 L246.33,162.26 L246.33,74.83 L257,74.83 C257.746,74.838 258.491,74.895 259.23,75 z" fill="#4D77CF"/>
    <path d="M352,100 L352,139.46 Q352,144.08 354.1,146.6 C355.663,148.345 357.942,149.275 360.28,149.12 C362.26,149.133 364.218,148.703 366.01,147.86 C367.905,146.942 369.654,145.749 371.2,144.32 L371.2,100 L389.79,100 L389.79,162.19 L378.28,162.19 C376.21,162.362 374.304,161.06 373.71,159.07 L372.58,155.47 C371.41,156.603 370.168,157.659 368.86,158.63 C367.575,159.565 366.198,160.365 364.75,161.02 C363.225,161.707 361.633,162.237 360,162.6 C358.19,162.993 356.342,163.185 354.49,163.17 C351.398,163.226 348.33,162.623 345.49,161.4 C342.939,160.27 340.673,158.581 338.86,156.46 C337.016,154.255 335.629,151.706 334.78,148.96 C333.832,145.891 333.366,142.692 333.4,139.48 L333.4,100 z" fill="#4D77CF"/>
    <path d="M401.78,162.21 L401.78,100 L413.3,100 C414.326,99.963 415.34,100.235 416.21,100.78 C417.016,101.343 417.6,102.171 417.86,103.12 L418.86,106.48 C419.869,105.41 420.948,104.407 422.09,103.48 C423.216,102.576 424.432,101.792 425.72,101.14 C428.553,99.702 431.693,98.971 434.87,99.01 C438.222,98.879 441.517,99.907 444.2,101.92 C446.728,103.959 448.662,106.639 449.8,109.68 C450.786,107.839 452.074,106.176 453.61,104.76 C455.063,103.435 456.7,102.327 458.47,101.47 C460.223,100.626 462.074,100.001 463.98,99.61 C465.888,99.213 467.831,99.012 469.78,99.01 C473.008,98.954 476.218,99.493 479.25,100.6 C481.889,101.579 484.262,103.161 486.18,105.22 C488.106,107.368 489.549,109.906 490.41,112.66 C491.417,115.896 491.903,119.271 491.85,122.66 L491.85,162.18 L473.25,162.18 L473.25,122.69 Q473.25,113.03 464.98,113.04 C462.635,112.965 460.364,113.867 458.71,115.53 Q456.22,118 456.22,122.69 L456.22,162.21 L437.65,162.21 L437.65,122.69 Q437.65,117.35 435.55,115.19 C434.15,113.75 432.09,113.04 429.37,113.04 C427.713,113.036 426.079,113.423 424.6,114.17 C423.047,114.976 421.621,116.007 420.37,117.23 L420.37,162.23 z" fill="#4D77CF"/>
    <path d="M522.93,133 L522.93,162.21 L502.66,162.21 L502.66,74.83 L533.48,74.83 C538.851,74.711 544.208,75.443 549.35,77 C553.361,78.228 557.075,80.271 560.26,83 C563.064,85.47 565.235,88.577 566.59,92.06 C567.959,95.658 568.637,99.481 568.59,103.33 C568.638,107.425 567.926,111.494 566.49,115.33 C565.126,118.917 562.925,122.126 560.07,124.69 C556.891,127.463 553.164,129.535 549.13,130.77 C544.065,132.34 538.782,133.093 533.48,133 z M522.93,117.71 L533.48,117.71 C538.76,117.71 542.56,116.46 544.88,113.93 C547.2,111.4 548.36,107.93 548.36,103.38 C548.384,101.521 548.079,99.673 547.46,97.92 C546.886,96.32 545.952,94.873 544.73,93.69 C543.408,92.454 541.831,91.522 540.11,90.96 C537.969,90.269 535.73,89.931 533.48,89.96 L522.93,89.96 z" fill="#4D77CF"/>
    <path d="M604.61,178.35 C604.187,179.413 603.498,180.349 602.61,181.07 C601.448,181.743 600.109,182.046 598.77,181.94 L584.82,181.94 L596.82,156.76 L572,100 L588.43,100 C589.632,99.938 590.818,100.292 591.79,101 C592.552,101.588 593.134,102.378 593.47,103.28 L603.66,130.09 C604.602,132.506 605.384,134.981 606,137.5 C606.4,136.22 606.84,134.96 607.32,133.73 C607.8,132.5 608.26,131.23 608.7,129.95 L617.94,103.26 C618.289,102.297 618.956,101.483 619.83,100.95 C620.716,100.35 621.76,100.026 622.83,100.02 L637.83,100.02 z" fill="#4D77CF"/>
    <path d="M92.38,46.4 L55.25,27.66 L14.49,48 L52.63,67.15 L92.38,46.4 z" fill="#4DABCF"/>
    <path d="M109.41,54.99 L148.34,74.65 L107.95,94.93 L69.75,75.75 L109.41,54.99 z" fill="#4DABCF"/>
    <path d="M161.41,27.94 L201.41,48 L165.63,65.96 L126.62,46.28 L161.41,27.94 z" fill="#4DABCF"/>
    <path d="M144.19,19.3 L108.18,1.24 L72.56,19.02 L109.67,37.73 L144.19,19.3 z" fill="#4DABCF"/>
    <path d="M116.04,174.36 L116.04,223.5 L159.66,201.73 L159.62,152.57 L116.04,174.36 z" fill="#4DABCF"/>
    <path d="M159.6,135.41 L159.55,86.77 L116.04,108.4 L116.04,157.06 L159.6,135.41 z" fill="#4DABCF"/>
    <path d="M211.97,126.3 L211.97,175.63 L174.76,194.19 L174.73,145.09 L211.97,126.3 z" fill="#4DABCF"/>
    <path d="M211.97,109.05 L211.97,60.71 L174.69,79.24 L174.72,127.98 L211.97,109.05 z" fill="#4DABCF"/>
    <path d="M100.64,108.4 L71.26,93.62 L71.26,157.46 C71.26,157.46 35.32,81 32,74.13 C31.57,73.24 29.81,72.27 29.36,72.03 C22.88,68.65 4,59.09 4,59.09 L4,171.92 L30.12,185.92 L30.12,126.92 C30.12,126.92 65.67,195.24 66.04,195.99 C66.41,196.74 69.96,203.93 73.78,206.46 C78.85,209.83 100.62,222.92 100.62,222.92 z" fill="#4D77CF"/>
  </g>
</svg>
