<?xml version="1.0" encoding="UTF-8"?>
<!DOCTYPE svg PUBLIC "-//W3C//DTD SVG 1.1//EN" "http://www.w3.org/Graphics/SVG/1.1/DTD/svg11.dtd">
<svg version="1.1" xmlns="http://www.w3.org/2000/svg" xmlns:xlink="http://www.w3.org/1999/xlink" x="0" y="0" width="448" height="448" viewBox="0, 0, 448, 448">
  <g id="icon">
    <path d="M48,0 C21.5,0 0,21.5 0,48 L0,400 C0,426.5 21.5,448 48,448 L400,448 C426.5,448 448,426.5 448,400 L448,48 C448,21.5 426.5,0 400,0 L48,0 z M188.695,64 L366.936,64 L350.465,76.859 L350.465,99.553 C356.581,100.338 355.934,104.013 355.934,108.41 L355.934,215.633 C355.934,220.598 351.872,224.662 346.906,224.662 L343.582,224.662 C338.616,224.662 334.553,220.598 334.553,215.633 L334.553,108.41 C334.553,104.002 333.913,100.324 340.074,99.549 L340.074,85.283 L292.65,124.176 C293.198,125.192 293.718,125.843 294.213,126.695 C298.38,134.073 300.502,143.245 300.502,154.455 C300.502,163.048 299.07,170.77 296.166,177.586 C293.275,184.403 289.759,189.97 285.658,194.26 C281.557,198.564 277.443,202.496 273.328,206.037 C269.215,209.585 265.699,213.284 262.82,217.125 C259.919,220.953 258.473,224.912 258.473,229.014 C258.473,233.122 260.349,237.295 264.086,241.5 C267.81,245.719 272.391,249.806 277.809,253.844 C283.238,257.854 288.655,262.307 294.072,267.15 C299.501,271.986 304.059,278.211 307.783,285.771 C311.534,293.357 313.408,301.709 313.408,310.889 C313.408,322.998 310.321,333.935 304.162,343.668 C297.99,353.361 289.943,361.097 280.061,366.768 C270.152,372.477 259.553,376.774 248.252,379.678 C236.924,382.555 225.687,384 214.463,384 C207.379,384 200.23,383.453 193.041,382.334 C185.829,381.214 178.603,379.236 171.324,376.449 C164.033,373.643 157.573,370.198 151.975,366.059 C146.363,361.964 141.845,356.677 138.381,350.238 C134.917,343.8 133.197,336.56 133.197,328.52 C133.197,318.981 135.854,310.134 141.18,301.885 C146.505,293.695 153.562,286.859 162.338,281.443 C177.651,271.918 201.674,266.032 234.369,263.807 C226.896,254.464 223.146,245.667 223.146,237.438 C223.146,232.755 224.368,227.738 226.791,222.32 C222.885,222.867 218.862,223.174 214.76,223.174 C197.197,223.174 182.364,217.464 170.32,205.967 C158.276,194.488 152.262,180.121 152.262,162.75 C152.262,160.934 152.314,159.331 152.443,157.561 L81.064,157.561 L188.695,64 z M220.074,102.334 C208.875,102.334 200.282,106.363 194.293,114.404 C188.305,122.424 185.309,132.139 185.309,143.551 C185.309,153.271 186.949,163.167 190.23,173.258 C193.499,183.343 198.852,192.347 206.352,200.283 C213.825,208.239 222.523,212.209 232.406,212.209 C243.422,212.209 252.029,208.52 258.201,201.137 C264.346,193.766 267.432,184.463 267.432,173.258 C267.432,163.713 265.805,153.721 262.537,143.271 C259.281,132.809 253.852,123.369 246.273,114.965 C238.721,106.533 229.97,102.334 220.074,102.334 z M238.592,274.414 C230.557,274.414 222.653,275.126 214.893,276.545 C207.132,277.925 199.476,280.255 191.924,283.543 C184.345,286.813 178.226,291.618 173.564,297.973 C168.877,304.319 166.545,311.794 166.545,320.395 C166.545,328.59 168.604,335.901 172.719,342.268 C176.821,348.595 182.237,353.552 188.969,357.1 C195.701,360.654 202.758,363.336 210.127,365.1 C217.51,366.851 225.024,367.764 232.68,367.764 C247.822,367.764 260.855,364.353 271.793,357.535 C282.704,350.719 288.174,340.193 288.174,325.986 C288.174,322.998 287.757,320.054 286.936,317.184 C286.077,314.28 285.232,311.794 284.398,309.73 C283.565,307.705 281.977,305.263 279.633,302.451 C277.302,299.633 275.517,297.549 274.318,296.162 C273.094,294.73 270.806,292.685 267.432,289.982 C264.087,287.269 261.951,285.577 261,284.951 L260.998,284.951 C260.06,284.294 257.626,282.516 253.707,279.631 C249.788,276.72 247.641,275.177 247.262,274.994 C245.204,274.623 242.316,274.414 238.592,274.414 z" fill="#000000" id="path2"/>
  </g>
</svg>
